<svg width="28" height="28" viewBox="0 0 28 28" fill="none" xmlns="http://www.w3.org/2000/svg">
<path d="M10.7917 25.6667L10.325 21.9333C10.0722 21.8361 9.83425 21.7194 9.61102 21.5833C9.3878 21.4472 9.16886 21.3014 8.95419 21.1458L5.48336 22.6042L2.27502 17.0625L5.27919 14.7875C5.25975 14.6514 5.25002 14.5203 5.25002 14.3943V13.6068C5.25002 13.4801 5.25975 13.3486 5.27919 13.2125L2.27502 10.9375L5.48336 5.39583L8.95419 6.85416C9.16808 6.69861 9.39169 6.55277 9.62503 6.41666C9.85836 6.28055 10.0917 6.16388 10.325 6.06666L10.7917 2.33333H17.2084L17.675 6.06666C17.9278 6.16388 18.1662 6.28055 18.3902 6.41666C18.6142 6.55277 18.8327 6.69861 19.0459 6.85416L22.5167 5.39583L25.725 10.9375L22.7209 13.2125C22.7403 13.3486 22.75 13.4801 22.75 13.6068V14.3932C22.75 14.5199 22.7306 14.6514 22.6917 14.7875L25.6959 17.0625L22.4875 22.6042L19.0459 21.1458C18.832 21.3014 18.6084 21.4472 18.375 21.5833C18.1417 21.7194 17.9084 21.8361 17.675 21.9333L17.2084 25.6667H10.7917ZM14.0584 18.0833C15.1861 18.0833 16.1486 17.6847 16.9459 16.8875C17.7431 16.0903 18.1417 15.1278 18.1417 14C18.1417 12.8722 17.7431 11.9097 16.9459 11.1125C16.1486 10.3153 15.1861 9.91666 14.0584 9.91666C12.9111 9.91666 11.9436 10.3153 11.1557 11.1125C10.3678 11.9097 9.97425 12.8722 9.97503 14C9.9758 15.1278 10.3697 16.0903 11.1569 16.8875C11.944 17.6847 12.9111 18.0833 14.0584 18.0833Z" fill="white"/>
</svg>
