<svg width="28" height="28" viewBox="0 0 28 28" fill="none" xmlns="http://www.w3.org/2000/svg">
<path d="M6.99967 22.1667C6.99967 23.45 8.04967 24.5 9.33301 24.5H18.6663C19.9497 24.5 20.9997 23.45 20.9997 22.1667V8.16667H6.99967V22.1667ZM10.698 14.6883C10.4799 14.4702 10.3573 14.1743 10.3573 13.8658C10.3573 13.5573 10.4799 13.2615 10.698 13.0433C10.9161 12.8252 11.212 12.7026 11.5205 12.7026C11.829 12.7026 12.1249 12.8252 12.343 13.0433L13.9997 14.6883L15.6447 13.0433C15.8628 12.8252 16.1587 12.7026 16.4672 12.7026C16.7757 12.7026 17.0715 12.8252 17.2897 13.0433C17.5078 13.2615 17.6304 13.5573 17.6304 13.8658C17.6304 14.1743 17.5078 14.4702 17.2897 14.6883L15.6447 16.3333L17.2897 17.9783C17.3977 18.0863 17.4834 18.2146 17.5418 18.3557C17.6003 18.4968 17.6304 18.6481 17.6304 18.8008C17.6304 18.9536 17.6003 19.1048 17.5418 19.246C17.4834 19.3871 17.3977 19.5153 17.2897 19.6233C17.1817 19.7313 17.0534 19.817 16.9123 19.8755C16.7712 19.9339 16.6199 19.964 16.4672 19.964C16.3144 19.964 16.1632 19.9339 16.022 19.8755C15.8809 19.817 15.7527 19.7313 15.6447 19.6233L13.9997 17.9783L12.3547 19.6233C12.2467 19.7313 12.1184 19.817 11.9773 19.8755C11.8362 19.9339 11.6849 19.964 11.5322 19.964C11.3794 19.964 11.2282 19.9339 11.087 19.8755C10.9459 19.817 10.8177 19.7313 10.7097 19.6233C10.6017 19.5153 10.516 19.3871 10.4575 19.246C10.3991 19.1048 10.369 18.9536 10.369 18.8008C10.369 18.6481 10.3991 18.4968 10.4575 18.3557C10.516 18.2146 10.6017 18.0863 10.7097 17.9783L12.3547 16.3333L10.698 14.6883ZM20.9997 4.66667H18.083L17.2547 3.83833C17.0447 3.62833 16.7413 3.5 16.438 3.5H11.5613C11.258 3.5 10.9547 3.62833 10.7447 3.83833L9.91634 4.66667H6.99967C6.35801 4.66667 5.83301 5.19167 5.83301 5.83333C5.83301 6.475 6.35801 7 6.99967 7H20.9997C21.6413 7 22.1663 6.475 22.1663 5.83333C22.1663 5.19167 21.6413 4.66667 20.9997 4.66667Z" fill="#FF3C5F"/>
</svg>
