<svg width="40" height="40" viewBox="0 0 40 40" fill="none" xmlns="http://www.w3.org/2000/svg">
<path d="M18.3337 7.25016H19.3337L32.1537 24.9802L31.3324 25.5507C31.3324 25.5507 31.3324 25.5507 31.3324 25.5507C31.4992 25.7908 31.6011 26.07 31.6281 26.3611C31.6551 26.6522 31.6064 26.9453 31.4866 27.212C31.3669 27.4787 31.1802 27.7099 30.9447 27.8831C30.7093 28.0563 30.433 28.1657 30.1428 28.2006C30.1428 28.2006 30.1427 28.2006 30.1426 28.2006L24.4645 28.8823L23.5837 28.988V29.8752V31.6668C23.5837 32.6172 23.2061 33.5286 22.5341 34.2006C21.8621 34.8726 20.9507 35.2502 20.0003 35.2502C19.05 35.2502 18.1385 34.8726 17.4665 34.2006C16.7945 33.5286 16.417 32.6172 16.417 31.6668V29.8752V28.9878L15.5359 28.8823L9.85762 28.2023C9.85761 28.2023 9.85759 28.2023 9.85757 28.2023C9.56716 28.1674 9.2907 28.0581 9.05506 27.8848C8.81941 27.7115 8.63262 27.4802 8.51285 27.2133C8.39309 26.9464 8.34442 26.6531 8.37158 26.3619C8.39875 26.0706 8.50082 25.7914 8.66788 25.5513L8.66824 25.5507C10.0561 23.5533 10.8711 21.2142 11.025 18.7868L11.0251 18.7859L11.3934 12.8961C11.3934 12.8961 11.3934 12.896 11.3934 12.8959C11.4894 11.3668 12.1646 9.93171 13.2814 8.88283C14.3984 7.8339 15.873 7.25006 17.4053 7.25016H17.4053H18.3337ZM23.0837 30.4168V29.4168H22.0837H17.917H16.917V30.4168V31.6668C16.917 32.4846 17.2419 33.2688 17.8201 33.8471C18.3983 34.4253 19.1826 34.7502 20.0003 34.7502C20.8181 34.7502 21.6023 34.4253 22.1806 33.8471C22.7588 33.2688 23.0837 32.4846 23.0837 31.6668V30.4168Z" stroke="#323C47" stroke-width="2"/>
</svg>
