<svg width="28" height="28" viewBox="0 0 28 28" fill="none" xmlns="http://www.w3.org/2000/svg">
<path d="M17.5 6.30005C17.5 7.22831 17.1313 8.11855 16.4749 8.77492C15.8185 9.4313 14.9283 9.80005 14 9.80005C13.0718 9.80005 12.1816 9.4313 11.5252 8.77492C10.8688 8.11855 10.5 7.22831 10.5 6.30005C10.5 5.37179 10.8688 4.48155 11.5252 3.82518C12.1816 3.1688 13.0718 2.80005 14 2.80005C14.9283 2.80005 15.8185 3.1688 16.4749 3.82518C17.1313 4.48155 17.5 5.37179 17.5 6.30005ZM24.5 7.00005C24.5 7.74265 24.205 8.45485 23.6799 8.97995C23.1548 9.50505 22.4427 9.80005 21.7 9.80005C20.9574 9.80005 20.2453 9.50505 19.7202 8.97995C19.195 8.45485 18.9 7.74265 18.9 7.00005C18.9 6.25744 19.195 5.54525 19.7202 5.02015C20.2453 4.49505 20.9574 4.20005 21.7 4.20005C22.4427 4.20005 23.1548 4.49505 23.6799 5.02015C24.205 5.54525 24.5 6.25744 24.5 7.00005ZM6.30005 9.80005C7.04265 9.80005 7.75485 9.50505 8.27995 8.97995C8.80505 8.45485 9.10005 7.74265 9.10005 7.00005C9.10005 6.25744 8.80505 5.54525 8.27995 5.02015C7.75485 4.49505 7.04265 4.20005 6.30005 4.20005C5.55744 4.20005 4.84525 4.49505 4.32015 5.02015C3.79505 5.54525 3.50005 6.25744 3.50005 7.00005C3.50005 7.74265 3.79505 8.45485 4.32015 8.97995C4.84525 9.50505 5.55744 9.80005 6.30005 9.80005ZM8.40005 12.95C8.40005 11.984 9.18405 11.2 10.15 11.2H17.85C18.816 11.2 19.6 11.984 19.6 12.95V19.6C19.6 21.0853 19.0101 22.5096 17.9598 23.5598C16.9096 24.61 15.4853 25.2 14 25.2C12.5148 25.2 11.0905 24.61 10.0403 23.5598C8.99005 22.5096 8.40005 21.0853 8.40005 19.6V12.95ZM7.00005 12.95C7.00005 12.3018 7.19605 11.7012 7.53065 11.2H4.55005C3.58405 11.2 2.80005 11.984 2.80005 12.95V18.2C2.79998 18.7994 2.9282 19.3919 3.17609 19.9376C3.42398 20.4833 3.78579 20.9696 4.23723 21.3639C4.68866 21.7581 5.21925 22.0512 5.79334 22.2234C6.36744 22.3956 6.97174 22.443 7.56565 22.3622C7.19172 21.4894 6.99928 20.5496 7.00005 19.6V12.95ZM21 19.6C21 20.58 20.7984 21.5152 20.4344 22.3622C20.6192 22.3874 20.8078 22.4 21 22.4C22.114 22.4 23.1822 21.9576 23.9699 21.1699C24.7576 20.3822 25.2 19.314 25.2 18.2V12.95C25.2 11.984 24.416 11.2 23.45 11.2H20.4694C20.8054 11.7012 21 12.3018 21 12.95V19.6Z" fill="white"/>
</svg>
