<svg width="28" height="28" viewBox="0 0 28 28" fill="none" xmlns="http://www.w3.org/2000/svg">
<path d="M20.4166 14C22.1185 14 23.7506 14.676 24.9539 15.8794C26.1573 17.0828 26.8333 18.7149 26.8333 20.4167C26.8333 22.1185 26.1573 23.7506 24.9539 24.9539C23.7506 26.1573 22.1185 26.8333 20.4166 26.8333C18.7148 26.8333 17.0827 26.1573 15.8794 24.9539C14.676 23.7506 14 22.1185 14 20.4167C14 18.7149 14.676 17.0828 15.8794 15.8794C17.0827 14.676 18.7148 14 20.4166 14ZM20.4166 16.3333L20.3116 16.3415C20.1951 16.3628 20.0878 16.4191 20.004 16.5029C19.9202 16.5866 19.8639 16.6939 19.8426 16.8105L19.8333 16.9167V19.8333H16.9143L16.8093 19.8427C16.6928 19.864 16.5854 19.9202 16.5017 20.004C16.4179 20.0878 16.3616 20.1951 16.3403 20.3117L16.331 20.4167L16.3403 20.5217C16.3616 20.6382 16.4179 20.7455 16.5017 20.8293C16.5854 20.9131 16.6928 20.9694 16.8093 20.9907L16.9143 21H19.8333V23.9202L19.8426 24.0252C19.8639 24.1417 19.9202 24.249 20.004 24.3328C20.0878 24.4166 20.1951 24.4729 20.3116 24.4942L20.4166 24.5035L20.5216 24.4942C20.6382 24.4729 20.7455 24.4166 20.8293 24.3328C20.9131 24.249 20.9694 24.1417 20.9906 24.0252L21 23.9202V21L23.9213 21.0012L24.0263 20.9918C24.1429 20.9705 24.2502 20.9143 24.334 20.8305C24.4177 20.7467 24.474 20.6394 24.4953 20.5228L24.5046 20.4178L24.4953 20.3128C24.4739 20.1961 24.4175 20.0887 24.3335 20.0049C24.2495 19.9211 24.1419 19.8649 24.0251 19.8438L23.9201 19.8345H21V16.9178L20.9906 16.8128C20.9696 16.6961 20.9134 16.5885 20.8296 16.5045C20.7458 16.4205 20.6384 16.364 20.5216 16.3427L20.4166 16.3333ZM16.6296 11.6667C17.0915 11.6668 17.5451 11.7887 17.9448 12.0202C18.3444 12.2516 18.6759 12.5844 18.9058 12.985C17.6995 13.2308 16.5711 13.7666 15.6182 14.5459C14.6652 15.3253 13.9162 16.3249 13.4359 17.4585C12.9556 18.592 12.7584 19.8255 12.8614 21.0523C12.9643 22.279 13.3643 23.4624 14.0268 24.5L14.0035 24.4988C13.3138 24.499 12.6309 24.3633 11.9938 24.0994C11.3566 23.8356 10.7776 23.4488 10.29 22.9611C9.80236 22.4735 9.41556 21.8946 9.15172 21.2574C8.88788 20.6202 8.75216 19.9373 8.75231 19.2477V14.2917C8.75231 13.5955 9.02887 12.9278 9.52116 12.4355C10.0134 11.9432 10.6811 11.6667 11.3773 11.6667H16.6296ZM8.64031 11.6667C8.02255 12.3095 7.65188 13.15 7.59381 14.0397L7.58565 14.2917V19.2488C7.58565 20.237 7.80848 21.1727 8.20748 22.008C7.8217 22.113 7.4192 22.1659 6.99998 22.1667C6.38705 22.1667 5.78012 22.0459 5.21385 21.8113C4.64759 21.5767 4.13309 21.2329 3.69974 20.7994C3.26638 20.366 2.92266 19.8514 2.68821 19.285C2.45375 18.7187 2.33316 18.1118 2.33331 17.4988V14.2917C2.33323 13.6265 2.58566 12.9861 3.03958 12.5C3.4935 12.0138 4.11506 11.718 4.77865 11.6725L4.95831 11.6667H8.64031ZM23.0416 11.6667C23.7378 11.6667 24.4055 11.9432 24.8978 12.4355C25.3901 12.9278 25.6666 13.5955 25.6666 14.2917V14.945C24.256 13.588 22.374 12.831 20.4166 12.8333L20.1331 12.8392C19.9511 12.4047 19.6909 12.0072 19.3655 11.6667H23.0416ZM21.5833 4.66667C22.3569 4.66667 23.0987 4.97396 23.6457 5.52094C24.1927 6.06792 24.5 6.80979 24.5 7.58333C24.5 8.35688 24.1927 9.09875 23.6457 9.64573C23.0987 10.1927 22.3569 10.5 21.5833 10.5C20.8098 10.5 20.0679 10.1927 19.5209 9.64573C18.9739 9.09875 18.6666 8.35688 18.6666 7.58333C18.6666 6.80979 18.9739 6.06792 19.5209 5.52094C20.0679 4.97396 20.8098 4.66667 21.5833 4.66667ZM14 3.5C14.9282 3.5 15.8185 3.86875 16.4749 4.52513C17.1312 5.1815 17.5 6.07174 17.5 7C17.5 7.92826 17.1312 8.8185 16.4749 9.47487C15.8185 10.1313 14.9282 10.5 14 10.5C13.0717 10.5 12.1815 10.1313 11.5251 9.47487C10.8687 8.8185 10.5 7.92826 10.5 7C10.5 6.07174 10.8687 5.1815 11.5251 4.52513C12.1815 3.86875 13.0717 3.5 14 3.5ZM6.41665 4.66667C7.19019 4.66667 7.93206 4.97396 8.47904 5.52094C9.02602 6.06792 9.33331 6.80979 9.33331 7.58333C9.33331 8.35688 9.02602 9.09875 8.47904 9.64573C7.93206 10.1927 7.19019 10.5 6.41665 10.5C5.6431 10.5 4.90123 10.1927 4.35425 9.64573C3.80727 9.09875 3.49998 8.35688 3.49998 7.58333C3.49998 6.80979 3.80727 6.06792 4.35425 5.52094C4.90123 4.97396 5.6431 4.66667 6.41665 4.66667Z" fill="white"/>
</svg>
