<svg width="28" height="28" viewBox="0 0 28 28" fill="none" xmlns="http://www.w3.org/2000/svg">
<g clip-path="url(#clip0_136_9699)">
<g clip-path="url(#clip1_136_9699)">
<path d="M26.375 8V6.25C26.375 5.78587 26.1906 5.34075 25.8624 5.01256C25.5342 4.68437 25.0891 4.5 24.625 4.5H5.375C4.91087 4.5 4.46575 4.68437 4.13756 5.01256C3.80937 5.34075 3.625 5.78587 3.625 6.25V8C3.625 8.46413 3.80937 8.90925 4.13756 9.23744C4.46575 9.56563 4.91087 9.75 5.375 9.75V20.25H4.5C4.26794 20.25 4.04538 20.3422 3.88128 20.5063C3.71719 20.6704 3.625 20.8929 3.625 21.125C3.625 21.3571 3.71719 21.5796 3.88128 21.7437C4.04538 21.9078 4.26794 22 4.5 22H14.125V23.9009C13.5412 24.1073 13.0491 24.5135 12.7358 25.0476C12.4225 25.5817 12.3081 26.2094 12.4128 26.8197C12.5175 27.43 12.8346 27.9837 13.308 28.3828C13.7815 28.7819 14.3808 29.0008 15 29.0008C15.6192 29.0008 16.2185 28.7819 16.692 28.3828C17.1654 27.9837 17.4825 27.43 17.5872 26.8197C17.6919 26.2094 17.5775 25.5817 17.2642 25.0476C16.9509 24.5135 16.4588 24.1073 15.875 23.9009V22H25.5C25.7321 22 25.9546 21.9078 26.1187 21.7437C26.2828 21.5796 26.375 21.3571 26.375 21.125C26.375 20.8929 26.2828 20.6704 26.1187 20.5063C25.9546 20.3422 25.7321 20.25 25.5 20.25H24.625V9.75C25.0891 9.75 25.5342 9.56563 25.8624 9.23744C26.1906 8.90925 26.375 8.46413 26.375 8ZM15 27.25C14.8269 27.25 14.6578 27.1987 14.5139 27.1025C14.37 27.0064 14.2578 26.8697 14.1916 26.7098C14.1254 26.55 14.1081 26.374 14.1418 26.2043C14.1756 26.0346 14.2589 25.8787 14.3813 25.7563C14.5037 25.6339 14.6596 25.5506 14.8293 25.5168C14.999 25.4831 15.175 25.5004 15.3348 25.5666C15.4947 25.6328 15.6314 25.745 15.7275 25.8889C15.8237 26.0328 15.875 26.2019 15.875 26.375C15.875 26.6071 15.7828 26.8296 15.6187 26.9937C15.4546 27.1578 15.2321 27.25 15 27.25ZM5.375 6.25H24.625V8H5.375V6.25Z" fill="white"/>
</g>
</g>
<defs>
<clipPath id="clip0_136_9699">
<rect width="28" height="28" fill="white"/>
</clipPath>
<clipPath id="clip1_136_9699">
<rect width="28" height="28" fill="white" transform="translate(1 1)"/>
</clipPath>
</defs>
</svg>
