<svg width="28" height="28" viewBox="0 0 28 28" fill="none" xmlns="http://www.w3.org/2000/svg">
<path d="M25.8809 13.8086L14.618 2.55393C14.5369 2.47268 14.4406 2.40821 14.3345 2.36423C14.2285 2.32025 14.1148 2.29761 14 2.29761C13.8852 2.29761 13.7716 2.32025 13.6655 2.36423C13.5595 2.40821 13.4632 2.47268 13.3821 2.55393L2.11917 13.8086C1.79104 14.1367 1.6051 14.5824 1.6051 15.0473C1.6051 16.0125 2.38987 16.7973 3.3551 16.7973H4.54182V24.8282C4.54182 25.3121 4.93284 25.7032 5.41682 25.7032H12.25V19.5782H15.3125V25.7032H22.5832C23.0672 25.7032 23.4582 25.3121 23.4582 24.8282V16.7973H24.6449C25.1098 16.7973 25.5555 16.6141 25.8836 16.2832C26.5645 15.5996 26.5645 14.4922 25.8809 13.8086Z" fill="white"/>
</svg>
