<svg width="28" height="28" viewBox="0 0 28 28" fill="none" xmlns="http://www.w3.org/2000/svg">
<g clip-path="url(#clip0_108_2534)">
<path d="M4.73825 14.7421H17.7331C18.1479 14.7421 18.4831 14.4061 18.4831 13.9921C18.4831 13.5781 18.1479 13.2421 17.7331 13.2421H4.78512L7.49825 10.529C7.79112 10.2361 7.79112 9.76137 7.49825 9.4685C7.20537 9.17563 6.73062 9.17563 6.43775 9.4685L2.00787 14.0154L6.43775 18.5623C6.58437 18.7089 6.776 18.782 6.968 18.782C7.16 18.782 7.35162 18.7089 7.49825 18.5623C7.79112 18.2694 7.79112 17.7946 7.49825 17.5018L4.73825 14.7421ZM24.4921 2H11.7421C10.9134 2 10.2421 2.67162 10.2421 3.5V10.25H11.7519V4.41463C11.7519 3.91363 12.1583 3.50713 12.6594 3.50713H23.5512C24.0526 3.50713 24.4587 3.91363 24.4587 4.41463L24.4823 23.5933C24.4823 24.0942 24.0762 24.5007 23.5748 24.5007H12.6597C12.1587 24.5007 11.7522 24.0942 11.7522 23.5933V17.7252L10.2425 17.7271V24.5C10.2425 25.3284 10.9137 26 11.7425 26H24.4921C25.3209 26 25.9925 25.3284 25.9925 24.5V3.5C25.9921 2.67162 25.3205 2 24.4921 2Z" fill="white"/>
</g>
<defs>
<clipPath id="clip0_108_2534">
<rect width="24" height="24" fill="white" transform="translate(2 2)"/>
</clipPath>
</defs>
</svg>
